<svg xmlns="http://www.w3.org/2000/svg" xmlns:xlink="http://www.w3.org/1999/xlink" width="1000px" height="500px" viewBox="0 0 1000 500" zoomAndPan="disable" preserveAspectRatio="none">

    <style type="text/css"><![CDATA[
		line
		{
			stroke: rgba(255,255,255,0.05);
			stroke-width: 1px;
		}
    ]]></style>
<!--
	<line x1="1100" y1="500" x2="-1000" y2="250" />
	<line x1="100" y1="500" x2="-1000" y2="-100" />
	<line x1="1000" y1="500" x2="-1000" y2="-500" />
	<line x1="1000" y1="500" x2="-250" y2="-500" />
	<line x1="1000" y1="500" x2="300" y2="-500" />
	<line x1="1000" y1="500" x2="750" y2="-500" />

	<line x1="1750" y1="0" x2="750" y2="500" />
	<line x1="1500" y1="0" x2="500" y2="500" />
	<line x1="1150" y1="0" x2="150" y2="500" />
	<line x1="700" y1="0" x2="-300" y2="500" />
	<line x1="150" y1="0" x2="-850" y2="500" />

-->
<!--
<svg xmlns='http://www.w3.org/2000/svg' width='100%' height='100%' viewBox='0 0 1600 800'><rect fill='#5B0000' width='1600' height='800'/><g fill-opacity='1'><polygon  fill='#52020d' points='1600 160 0 460 0 350 1600 50'/><polygon  fill='#48041b' points='1600 260 0 560 0 450 1600 150'/><polygon  fill='#3f0528' points='1600 360 0 660 0 550 1600 250'/><polygon  fill='#350736' points='1600 460 0 760 0 650 1600 350'/><polygon  fill='#2C0943' points='1600 800 0 800 0 750 1600 450'/></g></svg>
-->

<svg xmlns="http://www.w3.org/2000/svg" version="1.1" xmlns:xlink="http://www.w3.org/1999/xlink" xmlns:svgjs="http://svgjs.com/svgjs" width="1080" height="560" preserveAspectRatio="none" viewBox="0 0 1080 560">
    <g mask="url(&quot;#SvgjsMask1077&quot;)" fill="none">
        <rect width="1080" height="560" x="0" y="0" fill="url(#SvgjsLinearGradient1078)"></rect>
        <path d="M3 182L-270 -91" stroke-width="10" stroke="url(#SvgjsLinearGradient1079)" stroke-linecap="round" class="BottomRight"></path>
        <path d="M795 127L515 -153" stroke-width="8" stroke="url(#SvgjsLinearGradient1079)" stroke-linecap="round" class="BottomRight"></path>
        <path d="M1079 427L809 157" stroke-width="10" stroke="url(#SvgjsLinearGradient1079)" stroke-linecap="round" class="BottomRight"></path>
        <path d="M90 369L-109 170" stroke-width="10" stroke="url(#SvgjsLinearGradient1079)" stroke-linecap="round" class="BottomRight"></path>
        <path d="M892 198L659 -35" stroke-width="6" stroke="url(#SvgjsLinearGradient1079)" stroke-linecap="round" class="BottomRight"></path>
        <path d="M558 447L724 613" stroke-width="6" stroke="url(#SvgjsLinearGradient1080)" stroke-linecap="round" class="TopLeft"></path>
        <path d="M263 484L655 876" stroke-width="6" stroke="url(#SvgjsLinearGradient1080)" stroke-linecap="round" class="TopLeft"></path>
        <path d="M236 452L531 747" stroke-width="8" stroke="url(#SvgjsLinearGradient1080)" stroke-linecap="round" class="TopLeft"></path>
        <path d="M929 309L1316 696" stroke-width="6" stroke="url(#SvgjsLinearGradient1080)" stroke-linecap="round" class="TopLeft"></path>
        <path d="M759 324L368 -67" stroke-width="6" stroke="url(#SvgjsLinearGradient1080)" stroke-linecap="round" class="TopLeft"></path>
        <path d="M208 481L-43 230" stroke-width="6" stroke="url(#SvgjsLinearGradient1079)" stroke-linecap="round" class="BottomRight"></path>
        <path d="M502 177L131 -194" stroke-width="10" stroke="url(#SvgjsLinearGradient1080)" stroke-linecap="round" class="TopLeft"></path>
        <path d="M742 492L384 134" stroke-width="8" stroke="url(#SvgjsLinearGradient1080)" stroke-linecap="round" class="TopLeft"></path>
        <path d="M5 418L374 787" stroke-width="6" stroke="url(#SvgjsLinearGradient1079)" stroke-linecap="round" class="BottomRight"></path>
        <path d="M725 133L1075 483" stroke-width="10" stroke="url(#SvgjsLinearGradient1079)" stroke-linecap="round" class="BottomRight"></path>
        <path d="M136 411L470 745" stroke-width="6" stroke="url(#SvgjsLinearGradient1079)" stroke-linecap="round" class="BottomRight"></path>
        <path d="M357 543L-7 179" stroke-width="8" stroke="url(#SvgjsLinearGradient1079)" stroke-linecap="round" class="BottomRight"></path>
        <path d="M83 208L241 366" stroke-width="8" stroke="url(#SvgjsLinearGradient1080)" stroke-linecap="round" class="TopLeft"></path>
        <path d="M458 512L633 687" stroke-width="8" stroke="url(#SvgjsLinearGradient1079)" stroke-linecap="round" class="BottomRight"></path>
        <path d="M509 190L162 -157" stroke-width="8" stroke="url(#SvgjsLinearGradient1079)" stroke-linecap="round" class="BottomRight"></path>
        <path d="M448 225L222 -1" stroke-width="10" stroke="url(#SvgjsLinearGradient1080)" stroke-linecap="round" class="TopLeft"></path>
        <path d="M174 91L8 -75" stroke-width="6" stroke="url(#SvgjsLinearGradient1080)" stroke-linecap="round" class="TopLeft"></path>
        <path d="M926 525L1213 812" stroke-width="6" stroke="url(#SvgjsLinearGradient1080)" stroke-linecap="round" class="TopLeft"></path>
        <path d="M1011 467L1224 680" stroke-width="8" stroke="url(#SvgjsLinearGradient1079)" stroke-linecap="round" class="BottomRight"></path>
        <path d="M99 534L359 794" stroke-width="8" stroke="url(#SvgjsLinearGradient1079)" stroke-linecap="round" class="BottomRight"></path>
        <path d="M734 362L1080 708" stroke-width="10" stroke="url(#SvgjsLinearGradient1079)" stroke-linecap="round" class="BottomRight"></path>
        <path d="M603 78L980 455" stroke-width="10" stroke="url(#SvgjsLinearGradient1080)" stroke-linecap="round" class="TopLeft"></path>
        <path d="M1064 208L1251 395" stroke-width="8" stroke="url(#SvgjsLinearGradient1080)" stroke-linecap="round" class="TopLeft"></path>
        <path d="M433 42L190 -201" stroke-width="8" stroke="url(#SvgjsLinearGradient1080)" stroke-linecap="round" class="TopLeft"></path>
        <path d="M731 211L567 47" stroke-width="10" stroke="url(#SvgjsLinearGradient1080)" stroke-linecap="round" class="TopLeft"></path>
        <path d="M110 541L-77 354" stroke-width="6" stroke="url(#SvgjsLinearGradient1080)" stroke-linecap="round" class="TopLeft"></path>
    </g>
    <defs>
        <mask id="SvgjsMask1077">
            <rect width="1080" height="560" fill="#ffffff"></rect>
        </mask>
        <linearGradient x1="12.04%" y1="-23.21%" x2="87.96%" y2="123.21%" gradientUnits="userSpaceOnUse" id="SvgjsLinearGradient1078">
            <stop stop-color="rgba(101, 20, 81, 1)" offset="0"></stop>
            <stop stop-color="rgba(43, 0, 158, 1)" offset="1"></stop>
        </linearGradient>
        <linearGradient x1="0%" y1="0%" x2="100%" y2="100%" id="SvgjsLinearGradient1079">
            <stop stop-color="rgba(28, 83, 142, 0)" offset="0"></stop>
            <stop stop-color="#1c538e" offset="1"></stop>
        </linearGradient>
        <linearGradient x1="100%" y1="100%" x2="0%" y2="0%" id="SvgjsLinearGradient1080">
            <stop stop-color="rgba(28, 83, 142, 0)" offset="0"></stop>
            <stop stop-color="#1c538e" offset="1"></stop>
        </linearGradient>
    </defs>
</svg>






</svg>

