<svg xmlns="http://www.w3.org/2000/svg" xmlns:xlink="http://www.w3.org/1999/xlink" width="1000px" height="500px" viewBox="0 0 1000 500" zoomAndPan="disable" preserveAspectRatio="none">

    <style type="text/css"><![CDATA[
		line
		{
			stroke: rgba(255,255,255,0.05);
			stroke-width: 1px;
		}
    ]]></style>
<!--
	<line x1="1100" y1="500" x2="-1000" y2="250" />
	<line x1="100" y1="500" x2="-1000" y2="-100" />
	<line x1="1000" y1="500" x2="-1000" y2="-500" />
	<line x1="1000" y1="500" x2="-250" y2="-500" />
	<line x1="1000" y1="500" x2="300" y2="-500" />
	<line x1="1000" y1="500" x2="750" y2="-500" />

	<line x1="1750" y1="0" x2="750" y2="500" />
	<line x1="1500" y1="0" x2="500" y2="500" />
	<line x1="1150" y1="0" x2="150" y2="500" />
	<line x1="700" y1="0" x2="-300" y2="500" />
	<line x1="150" y1="0" x2="-850" y2="500" />

-->
<!--
<svg xmlns='http://www.w3.org/2000/svg' width='100%' height='100%' viewBox='0 0 1600 800'><rect fill='#5B0000' width='1600' height='800'/><g fill-opacity='1'><polygon  fill='#52020d' points='1600 160 0 460 0 350 1600 50'/><polygon  fill='#48041b' points='1600 260 0 560 0 450 1600 150'/><polygon  fill='#3f0528' points='1600 360 0 660 0 550 1600 250'/><polygon  fill='#350736' points='1600 460 0 760 0 650 1600 350'/><polygon  fill='#2C0943' points='1600 800 0 800 0 750 1600 450'/></g></svg>
-->

<svg xmlns="http://www.w3.org/2000/svg" version="1.1" xmlns:xlink="http://www.w3.org/1999/xlink" xmlns:svgjs="http://svgjs.com/svgjs" width="1920" height="1080" preserveAspectRatio="none" viewBox="0 0 1920 1080">
    <g mask="url(&quot;#SvgjsMask2323&quot;)" fill="none">
        <rect width="1280" height="736" x="0" y="0" fill="url(#SvgjsLinearGradient2324)"></rect>
        <g mask="url(&quot;#SvgjsMask2326&quot;)">
            <path d="M1937.5 542.5L1906.5 542.5L1875.5 542.5" stroke="url(#SvgjsLinearGradient2325)" stroke-width="5.17"></path>
            <path d="M1867.75 542.5 a7.75 7.75 0 1 0 15.5 0 a7.75 7.75 0 1 0 -15.5 0z" fill="url(#SvgjsLinearGradient2325)"></path>
            <path d="M1627.5 480.5L1596.5 511.5L1565.5 511.5M1503.5 480.5L1472.5 480.5L1441.5 480.5L1410.5 480.5L1379.5 480.5L1348.5 480.5L1317.5 480.5M1286.5 511.5L1255.5 480.5L1224.5 480.5L1193.5 480.5L1162.5 480.5L1131.5 480.5L1100.5 480.5L1069.5 480.5M1751.5 511.5L1720.5 511.5M1689.5 480.5L1658.5 511.5L1627.5 511.5M1844.5 511.5L1813.5 542.5L1782.5 542.5M1937.5 511.5L1906.5 511.5L1875.5 511.5L1844.5 511.5L1813.5 511.5L1782.5 511.5L1751.5 511.5L1720.5 480.5L1689.5 480.5L1658.5 480.5L1627.5 480.5L1596.5 480.5L1565.5 480.5L1534.5 480.5L1503.5 480.5L1472.5 511.5L1441.5 511.5L1410.5 511.5L1379.5 511.5L1348.5 511.5L1317.5 511.5L1286.5 511.5L1255.5 511.5L1224.5 511.5" stroke="url(#SvgjsLinearGradient2325)" stroke-width="5.17"></path>
            <path d="M1216.75 511.5 a7.75 7.75 0 1 0 15.5 0 a7.75 7.75 0 1 0 -15.5 0zM1557.75 511.5 a7.75 7.75 0 1 0 15.5 0 a7.75 7.75 0 1 0 -15.5 0zM1309.75 480.5 a7.75 7.75 0 1 0 15.5 0 a7.75 7.75 0 1 0 -15.5 0zM1061.75 480.5 a7.75 7.75 0 1 0 15.5 0 a7.75 7.75 0 1 0 -15.5 0zM1712.75 511.5 a7.75 7.75 0 1 0 15.5 0 a7.75 7.75 0 1 0 -15.5 0zM1619.75 511.5 a7.75 7.75 0 1 0 15.5 0 a7.75 7.75 0 1 0 -15.5 0zM1774.75 542.5 a7.75 7.75 0 1 0 15.5 0 a7.75 7.75 0 1 0 -15.5 0z" fill="url(#SvgjsLinearGradient2325)"></path>
            <path d="M1689.5 542.5L1658.5 573.5L1627.5 573.5L1596.5 573.5L1565.5 573.5L1534.5 573.5L1503.5 573.5L1472.5 573.5L1441.5 573.5L1410.5 573.5M1844.5 573.5L1813.5 604.5L1782.5 604.5L1751.5 573.5L1720.5 573.5L1689.5 573.5M1255.5 542.5L1224.5 573.5M1069.5 542.5L1038.5 542.5L1007.5 542.5L976.5 542.5M1131.5 542.5L1100.5 511.5L1069.5 511.5M1348.5 542.5L1317.5 573.5L1286.5 604.5M1193.5 542.5L1162.5 511.5L1131.5 511.5M1937.5 573.5L1906.5 573.5L1875.5 573.5L1844.5 573.5L1813.5 573.5L1782.5 573.5L1751.5 542.5L1720.5 542.5L1689.5 542.5L1658.5 542.5L1627.5 542.5L1596.5 542.5L1565.5 542.5L1534.5 511.5L1503.5 511.5L1472.5 542.5L1441.5 542.5L1410.5 542.5L1379.5 542.5L1348.5 542.5L1317.5 542.5L1286.5 542.5L1255.5 542.5L1224.5 542.5L1193.5 542.5L1162.5 542.5L1131.5 542.5L1100.5 542.5L1069.5 542.5L1038.5 511.5" stroke="url(#SvgjsLinearGradient2325)" stroke-width="5.17"></path>
            <path d="M1030.75 511.5 a7.75 7.75 0 1 0 15.5 0 a7.75 7.75 0 1 0 -15.5 0zM1402.75 573.5 a7.75 7.75 0 1 0 15.5 0 a7.75 7.75 0 1 0 -15.5 0zM1681.75 573.5 a7.75 7.75 0 1 0 15.5 0 a7.75 7.75 0 1 0 -15.5 0zM1216.75 573.5 a7.75 7.75 0 1 0 15.5 0 a7.75 7.75 0 1 0 -15.5 0zM968.75 542.5 a7.75 7.75 0 1 0 15.5 0 a7.75 7.75 0 1 0 -15.5 0zM1061.75 511.5 a7.75 7.75 0 1 0 15.5 0 a7.75 7.75 0 1 0 -15.5 0zM1278.75 604.5 a7.75 7.75 0 1 0 15.5 0 a7.75 7.75 0 1 0 -15.5 0zM1123.75 511.5 a7.75 7.75 0 1 0 15.5 0 a7.75 7.75 0 1 0 -15.5 0z" fill="url(#SvgjsLinearGradient2325)"></path>
            <path d="M1379.5 449.5L1348.5 418.5L1317.5 418.5M1224.5 449.5L1193.5 418.5L1162.5 418.5M1038.5 449.5L1007.5 480.5L976.5 480.5L945.5 480.5M1503.5 449.5L1472.5 418.5L1441.5 418.5L1410.5 418.5L1379.5 418.5M1131.5 449.5L1100.5 418.5L1069.5 418.5M1255.5 449.5L1224.5 418.5L1193.5 387.5L1162.5 387.5L1131.5 387.5L1100.5 387.5L1069.5 387.5L1038.5 387.5L1007.5 387.5L976.5 387.5L945.5 387.5L914.5 387.5M1937.5 480.5L1906.5 480.5L1875.5 480.5L1844.5 480.5L1813.5 480.5L1782.5 480.5L1751.5 480.5L1720.5 449.5L1689.5 449.5L1658.5 449.5L1627.5 449.5L1596.5 449.5L1565.5 449.5L1534.5 449.5L1503.5 449.5L1472.5 449.5L1441.5 449.5L1410.5 449.5L1379.5 449.5L1348.5 449.5L1317.5 449.5L1286.5 449.5L1255.5 449.5L1224.5 449.5L1193.5 449.5L1162.5 449.5L1131.5 449.5L1100.5 449.5L1069.5 449.5L1038.5 449.5L1007.5 449.5" stroke="url(#SvgjsLinearGradient2325)" stroke-width="5.17"></path>
            <path d="M999.75 449.5 a7.75 7.75 0 1 0 15.5 0 a7.75 7.75 0 1 0 -15.5 0zM1309.75 418.5 a7.75 7.75 0 1 0 15.5 0 a7.75 7.75 0 1 0 -15.5 0zM1154.75 418.5 a7.75 7.75 0 1 0 15.5 0 a7.75 7.75 0 1 0 -15.5 0zM937.75 480.5 a7.75 7.75 0 1 0 15.5 0 a7.75 7.75 0 1 0 -15.5 0zM1371.75 418.5 a7.75 7.75 0 1 0 15.5 0 a7.75 7.75 0 1 0 -15.5 0zM1061.75 418.5 a7.75 7.75 0 1 0 15.5 0 a7.75 7.75 0 1 0 -15.5 0zM906.75 387.5 a7.75 7.75 0 1 0 15.5 0 a7.75 7.75 0 1 0 -15.5 0z" fill="url(#SvgjsLinearGradient2325)"></path>
            <path d="M1627.5 666.5L1596.5 635.5L1565.5 635.5L1534.5 635.5M1379.5 697.5L1348.5 666.5L1317.5 666.5L1286.5 666.5L1255.5 666.5L1224.5 666.5L1193.5 666.5L1162.5 666.5L1131.5 666.5L1100.5 666.5L1069.5 666.5L1038.5 635.5M1410.5 697.5L1379.5 666.5L1348.5 635.5L1317.5 635.5L1286.5 635.5L1255.5 635.5L1224.5 635.5L1193.5 635.5L1162.5 635.5L1131.5 635.5L1100.5 635.5M1441.5 697.5L1410.5 666.5L1379.5 635.5M1007.5 666.5L976.5 635.5L945.5 635.5M1751.5 666.5L1720.5 635.5L1689.5 604.5L1658.5 604.5L1627.5 604.5L1596.5 604.5L1565.5 604.5L1534.5 604.5L1503.5 604.5L1472.5 604.5M1534.5 666.5L1503.5 666.5L1472.5 666.5L1441.5 666.5L1410.5 635.5M1782.5 635.5L1751.5 635.5L1720.5 604.5M1937.5 604.5L1906.5 604.5L1875.5 604.5L1844.5 635.5L1813.5 635.5L1782.5 635.5L1751.5 666.5L1720.5 666.5L1689.5 666.5L1658.5 666.5L1627.5 666.5L1596.5 666.5L1565.5 666.5L1534.5 666.5L1503.5 697.5L1472.5 697.5L1441.5 697.5L1410.5 697.5L1379.5 697.5L1348.5 697.5L1317.5 697.5L1286.5 697.5L1255.5 697.5L1224.5 697.5L1193.5 697.5L1162.5 697.5L1131.5 697.5L1100.5 697.5L1069.5 697.5L1038.5 697.5L1007.5 666.5L976.5 666.5" stroke="url(#SvgjsLinearGradient2325)" stroke-width="5.17"></path>
            <path d="M968.75 666.5 a7.75 7.75 0 1 0 15.5 0 a7.75 7.75 0 1 0 -15.5 0zM1526.75 635.5 a7.75 7.75 0 1 0 15.5 0 a7.75 7.75 0 1 0 -15.5 0zM1030.75 635.5 a7.75 7.75 0 1 0 15.5 0 a7.75 7.75 0 1 0 -15.5 0zM1092.75 635.5 a7.75 7.75 0 1 0 15.5 0 a7.75 7.75 0 1 0 -15.5 0zM1371.75 635.5 a7.75 7.75 0 1 0 15.5 0 a7.75 7.75 0 1 0 -15.5 0zM937.75 635.5 a7.75 7.75 0 1 0 15.5 0 a7.75 7.75 0 1 0 -15.5 0zM1464.75 604.5 a7.75 7.75 0 1 0 15.5 0 a7.75 7.75 0 1 0 -15.5 0zM1402.75 635.5 a7.75 7.75 0 1 0 15.5 0 a7.75 7.75 0 1 0 -15.5 0zM1712.75 604.5 a7.75 7.75 0 1 0 15.5 0 a7.75 7.75 0 1 0 -15.5 0z" fill="url(#SvgjsLinearGradient2325)"></path>
            <path d="M1534.5 418.5L1503.5 418.5M1937.5 449.5L1906.5 449.5L1875.5 449.5L1844.5 449.5L1813.5 449.5L1782.5 449.5L1751.5 449.5L1720.5 418.5L1689.5 418.5L1658.5 418.5L1627.5 418.5L1596.5 418.5L1565.5 418.5L1534.5 418.5L1503.5 387.5L1472.5 387.5L1441.5 387.5L1410.5 387.5L1379.5 387.5L1348.5 387.5" stroke="url(#SvgjsLinearGradient2325)" stroke-width="5.17"></path>
            <path d="M1340.75 387.5 a7.75 7.75 0 1 0 15.5 0 a7.75 7.75 0 1 0 -15.5 0zM1495.75 418.5 a7.75 7.75 0 1 0 15.5 0 a7.75 7.75 0 1 0 -15.5 0z" fill="url(#SvgjsLinearGradient2325)"></path>
            <path d="M945.5 697.5L914.5 728.5L883.5 728.5M852.5 697.5L821.5 728.5L790.5 728.5L759.5 728.5L728.5 728.5L697.5 728.5L666.5 728.5L635.5 728.5L604.5 759.5L573.5 759.5M604.5 697.5L573.5 728.5L542.5 728.5L511.5 728.5L480.5 728.5L449.5 728.5L418.5 728.5M635.5 697.5L604.5 666.5L573.5 666.5L542.5 666.5M1007.5 697.5L976.5 728.5L945.5 728.5L914.5 759.5L883.5 790.5L852.5 790.5M666.5 697.5L635.5 666.5L604.5 635.5L573.5 635.5M790.5 697.5L759.5 666.5L728.5 666.5L697.5 666.5L666.5 666.5M1906.5 635.5L1875.5 635.5M914.5 697.5L883.5 666.5L852.5 666.5M821.5 697.5L790.5 666.5L759.5 635.5L728.5 604.5L697.5 604.5L666.5 604.5L635.5 604.5L604.5 604.5L573.5 604.5L542.5 604.5L511.5 604.5L480.5 604.5L449.5 604.5L418.5 604.5M1038.5 728.5L1007.5 728.5L976.5 759.5L945.5 759.5L914.5 790.5L883.5 821.5L852.5 821.5L821.5 821.5L790.5 821.5L759.5 821.5L728.5 821.5L697.5 821.5L666.5 821.5L635.5 821.5M1937.5 635.5L1906.5 635.5L1875.5 666.5L1844.5 666.5L1813.5 666.5L1782.5 666.5L1751.5 697.5L1720.5 697.5L1689.5 697.5L1658.5 697.5L1627.5 697.5L1596.5 697.5L1565.5 697.5L1534.5 697.5L1503.5 728.5L1472.5 728.5L1441.5 728.5L1410.5 728.5L1379.5 728.5L1348.5 728.5L1317.5 728.5L1286.5 728.5L1255.5 728.5L1224.5 728.5L1193.5 728.5L1162.5 728.5L1131.5 728.5L1100.5 728.5L1069.5 728.5L1038.5 728.5L1007.5 697.5L976.5 697.5L945.5 697.5L914.5 697.5L883.5 697.5L852.5 697.5L821.5 697.5L790.5 697.5L759.5 697.5L728.5 697.5L697.5 697.5L666.5 697.5L635.5 697.5L604.5 697.5L573.5 697.5L542.5 697.5L511.5 697.5" stroke="url(#SvgjsLinearGradient2325)" stroke-width="5.17"></path>
            <path d="M503.75 697.5 a7.75 7.75 0 1 0 15.5 0 a7.75 7.75 0 1 0 -15.5 0zM875.75 728.5 a7.75 7.75 0 1 0 15.5 0 a7.75 7.75 0 1 0 -15.5 0zM565.75 759.5 a7.75 7.75 0 1 0 15.5 0 a7.75 7.75 0 1 0 -15.5 0zM410.75 728.5 a7.75 7.75 0 1 0 15.5 0 a7.75 7.75 0 1 0 -15.5 0zM534.75 666.5 a7.75 7.75 0 1 0 15.5 0 a7.75 7.75 0 1 0 -15.5 0zM844.75 790.5 a7.75 7.75 0 1 0 15.5 0 a7.75 7.75 0 1 0 -15.5 0zM565.75 635.5 a7.75 7.75 0 1 0 15.5 0 a7.75 7.75 0 1 0 -15.5 0zM658.75 666.5 a7.75 7.75 0 1 0 15.5 0 a7.75 7.75 0 1 0 -15.5 0zM1867.75 635.5 a7.75 7.75 0 1 0 15.5 0 a7.75 7.75 0 1 0 -15.5 0zM844.75 666.5 a7.75 7.75 0 1 0 15.5 0 a7.75 7.75 0 1 0 -15.5 0zM410.75 604.5 a7.75 7.75 0 1 0 15.5 0 a7.75 7.75 0 1 0 -15.5 0zM627.75 821.5 a7.75 7.75 0 1 0 15.5 0 a7.75 7.75 0 1 0 -15.5 0z" fill="url(#SvgjsLinearGradient2325)"></path>
            <path d="M1596.5 387.5L1565.5 356.5L1534.5 356.5M1007.5 325.5L976.5 356.5L945.5 356.5M1193.5 356.5L1162.5 325.5L1131.5 325.5L1100.5 325.5L1069.5 325.5M1317.5 356.5L1286.5 387.5L1255.5 387.5M852.5 294.5L821.5 325.5L790.5 325.5L759.5 325.5M883.5 325.5L852.5 325.5L821.5 356.5L790.5 356.5L759.5 356.5L728.5 356.5L697.5 356.5L666.5 356.5M1069.5 356.5L1038.5 356.5L1007.5 356.5M1224.5 356.5L1193.5 325.5M1627.5 387.5L1596.5 356.5M1937.5 418.5L1906.5 418.5L1875.5 418.5L1844.5 418.5L1813.5 418.5L1782.5 418.5L1751.5 418.5L1720.5 387.5L1689.5 387.5L1658.5 387.5L1627.5 387.5L1596.5 387.5L1565.5 387.5L1534.5 387.5L1503.5 356.5L1472.5 356.5L1441.5 356.5L1410.5 356.5L1379.5 356.5L1348.5 356.5L1317.5 356.5L1286.5 356.5L1255.5 356.5L1224.5 356.5L1193.5 356.5L1162.5 356.5L1131.5 356.5L1100.5 356.5L1069.5 356.5L1038.5 325.5L1007.5 325.5L976.5 325.5L945.5 325.5L914.5 325.5L883.5 325.5L852.5 294.5L821.5 294.5L790.5 294.5L759.5 294.5" stroke="url(#SvgjsLinearGradient2325)" stroke-width="5.17"></path>
            <path d="M751.75 294.5 a7.75 7.75 0 1 0 15.5 0 a7.75 7.75 0 1 0 -15.5 0zM1526.75 356.5 a7.75 7.75 0 1 0 15.5 0 a7.75 7.75 0 1 0 -15.5 0zM937.75 356.5 a7.75 7.75 0 1 0 15.5 0 a7.75 7.75 0 1 0 -15.5 0zM1061.75 325.5 a7.75 7.75 0 1 0 15.5 0 a7.75 7.75 0 1 0 -15.5 0zM1247.75 387.5 a7.75 7.75 0 1 0 15.5 0 a7.75 7.75 0 1 0 -15.5 0zM751.75 325.5 a7.75 7.75 0 1 0 15.5 0 a7.75 7.75 0 1 0 -15.5 0zM658.75 356.5 a7.75 7.75 0 1 0 15.5 0 a7.75 7.75 0 1 0 -15.5 0zM999.75 356.5 a7.75 7.75 0 1 0 15.5 0 a7.75 7.75 0 1 0 -15.5 0zM1185.75 325.5 a7.75 7.75 0 1 0 15.5 0 a7.75 7.75 0 1 0 -15.5 0zM1588.75 356.5 a7.75 7.75 0 1 0 15.5 0 a7.75 7.75 0 1 0 -15.5 0z" fill="url(#SvgjsLinearGradient2325)"></path>
            <path d="M1162.5 759.5L1131.5 790.5L1100.5 790.5L1069.5 790.5L1038.5 790.5M1193.5 759.5L1162.5 790.5M1937.5 666.5L1906.5 666.5L1875.5 697.5L1844.5 697.5L1813.5 697.5L1782.5 697.5L1751.5 728.5L1720.5 728.5L1689.5 728.5L1658.5 728.5L1627.5 728.5L1596.5 728.5L1565.5 728.5L1534.5 728.5L1503.5 759.5L1472.5 759.5L1441.5 759.5L1410.5 759.5L1379.5 759.5L1348.5 759.5L1317.5 759.5L1286.5 759.5L1255.5 759.5L1224.5 759.5L1193.5 759.5L1162.5 759.5L1131.5 759.5L1100.5 759.5L1069.5 759.5" stroke="url(#SvgjsLinearGradient2325)" stroke-width="5.17"></path>
            <path d="M1061.75 759.5 a7.75 7.75 0 1 0 15.5 0 a7.75 7.75 0 1 0 -15.5 0zM1030.75 790.5 a7.75 7.75 0 1 0 15.5 0 a7.75 7.75 0 1 0 -15.5 0zM1154.75 790.5 a7.75 7.75 0 1 0 15.5 0 a7.75 7.75 0 1 0 -15.5 0z" fill="url(#SvgjsLinearGradient2325)"></path>
            <path d="M1658.5 356.5L1627.5 356.5M1937.5 387.5L1906.5 387.5L1875.5 387.5L1844.5 387.5L1813.5 387.5L1782.5 387.5L1751.5 387.5L1720.5 356.5L1689.5 356.5L1658.5 356.5L1627.5 325.5L1596.5 325.5L1565.5 325.5L1534.5 325.5L1503.5 325.5L1472.5 325.5L1441.5 325.5L1410.5 325.5L1379.5 325.5L1348.5 325.5L1317.5 325.5L1286.5 325.5L1255.5 325.5L1224.5 294.5L1193.5 294.5L1162.5 294.5L1131.5 294.5L1100.5 294.5L1069.5 294.5L1038.5 294.5L1007.5 294.5L976.5 294.5L945.5 294.5L914.5 294.5L883.5 294.5L852.5 263.5L821.5 263.5" stroke="url(#SvgjsLinearGradient2325)" stroke-width="5.17"></path>
            <path d="M813.75 263.5 a7.75 7.75 0 1 0 15.5 0 a7.75 7.75 0 1 0 -15.5 0zM1619.75 356.5 a7.75 7.75 0 1 0 15.5 0 a7.75 7.75 0 1 0 -15.5 0z" fill="url(#SvgjsLinearGradient2325)"></path>
            <path d="M1224.5 790.5L1193.5 790.5M1627.5 759.5L1596.5 790.5L1565.5 790.5L1534.5 790.5M1937.5 697.5L1906.5 697.5L1875.5 728.5L1844.5 728.5L1813.5 728.5L1782.5 728.5L1751.5 759.5L1720.5 759.5L1689.5 759.5L1658.5 759.5L1627.5 759.5L1596.5 759.5L1565.5 759.5L1534.5 759.5L1503.5 790.5L1472.5 790.5L1441.5 790.5L1410.5 790.5L1379.5 790.5L1348.5 790.5L1317.5 790.5L1286.5 790.5L1255.5 790.5L1224.5 790.5L1193.5 821.5L1162.5 821.5L1131.5 821.5" stroke="url(#SvgjsLinearGradient2325)" stroke-width="5.17"></path>
            <path d="M1123.75 821.5 a7.75 7.75 0 1 0 15.5 0 a7.75 7.75 0 1 0 -15.5 0zM1185.75 790.5 a7.75 7.75 0 1 0 15.5 0 a7.75 7.75 0 1 0 -15.5 0zM1526.75 790.5 a7.75 7.75 0 1 0 15.5 0 a7.75 7.75 0 1 0 -15.5 0z" fill="url(#SvgjsLinearGradient2325)"></path>
            <path d="M1937.5 356.5L1906.5 356.5L1875.5 356.5L1844.5 356.5L1813.5 356.5L1782.5 356.5L1751.5 356.5L1720.5 325.5L1689.5 325.5L1658.5 325.5L1627.5 294.5L1596.5 294.5L1565.5 294.5L1534.5 294.5L1503.5 294.5L1472.5 294.5L1441.5 294.5L1410.5 294.5L1379.5 294.5" stroke="url(#SvgjsLinearGradient2325)" stroke-width="5.17"></path>
            <path d="M1371.75 294.5 a7.75 7.75 0 1 0 15.5 0 a7.75 7.75 0 1 0 -15.5 0z" fill="url(#SvgjsLinearGradient2325)"></path>
            <path d="M1472.5 821.5L1441.5 852.5L1410.5 883.5L1379.5 883.5L1348.5 883.5M1534.5 821.5L1503.5 852.5L1472.5 852.5L1441.5 883.5L1410.5 914.5L1379.5 914.5L1348.5 914.5L1317.5 914.5L1286.5 914.5L1255.5 914.5L1224.5 914.5L1193.5 914.5L1162.5 914.5L1131.5 914.5M1100.5 852.5L1069.5 821.5L1038.5 821.5L1007.5 821.5L976.5 821.5L945.5 790.5M1131.5 852.5L1100.5 883.5L1069.5 883.5L1038.5 883.5L1007.5 914.5L976.5 914.5L945.5 914.5L914.5 914.5L883.5 914.5L852.5 914.5L821.5 914.5L790.5 945.5L759.5 945.5L728.5 914.5L697.5 914.5L666.5 914.5M1193.5 852.5L1162.5 883.5L1131.5 883.5M790.5 883.5L759.5 852.5L728.5 852.5L697.5 852.5M1007.5 883.5L976.5 852.5M1286.5 821.5L1255.5 852.5M1813.5 759.5L1782.5 759.5M1658.5 790.5L1627.5 790.5M1317.5 821.5L1286.5 852.5L1255.5 883.5L1224.5 883.5L1193.5 883.5M1937.5 728.5L1906.5 728.5L1875.5 759.5L1844.5 759.5L1813.5 759.5L1782.5 790.5L1751.5 790.5L1720.5 790.5L1689.5 790.5L1658.5 790.5L1627.5 821.5L1596.5 821.5L1565.5 821.5L1534.5 821.5L1503.5 821.5L1472.5 821.5L1441.5 821.5L1410.5 821.5L1379.5 821.5L1348.5 821.5L1317.5 821.5L1286.5 821.5L1255.5 821.5L1224.5 821.5L1193.5 852.5L1162.5 852.5L1131.5 852.5L1100.5 852.5L1069.5 852.5L1038.5 852.5L1007.5 883.5L976.5 883.5L945.5 883.5L914.5 883.5L883.5 883.5L852.5 883.5L821.5 883.5L790.5 883.5L759.5 883.5L728.5 883.5L697.5 883.5L666.5 883.5L635.5 914.5L604.5 914.5L573.5 914.5L542.5 914.5" stroke="url(#SvgjsLinearGradient2325)" stroke-width="5.17"></path>
            <path d="M534.75 914.5 a7.75 7.75 0 1 0 15.5 0 a7.75 7.75 0 1 0 -15.5 0zM1340.75 883.5 a7.75 7.75 0 1 0 15.5 0 a7.75 7.75 0 1 0 -15.5 0zM1123.75 914.5 a7.75 7.75 0 1 0 15.5 0 a7.75 7.75 0 1 0 -15.5 0zM937.75 790.5 a7.75 7.75 0 1 0 15.5 0 a7.75 7.75 0 1 0 -15.5 0zM658.75 914.5 a7.75 7.75 0 1 0 15.5 0 a7.75 7.75 0 1 0 -15.5 0zM1123.75 883.5 a7.75 7.75 0 1 0 15.5 0 a7.75 7.75 0 1 0 -15.5 0zM689.75 852.5 a7.75 7.75 0 1 0 15.5 0 a7.75 7.75 0 1 0 -15.5 0zM968.75 852.5 a7.75 7.75 0 1 0 15.5 0 a7.75 7.75 0 1 0 -15.5 0zM1247.75 852.5 a7.75 7.75 0 1 0 15.5 0 a7.75 7.75 0 1 0 -15.5 0zM1774.75 759.5 a7.75 7.75 0 1 0 15.5 0 a7.75 7.75 0 1 0 -15.5 0zM1619.75 790.5 a7.75 7.75 0 1 0 15.5 0 a7.75 7.75 0 1 0 -15.5 0zM1185.75 883.5 a7.75 7.75 0 1 0 15.5 0 a7.75 7.75 0 1 0 -15.5 0z" fill="url(#SvgjsLinearGradient2325)"></path>
            <path d="M1441.5 263.5L1410.5 232.5L1379.5 232.5L1348.5 232.5L1317.5 232.5L1286.5 232.5M852.5 232.5L821.5 201.5M1100.5 263.5L1069.5 232.5M1193.5 263.5L1162.5 232.5L1131.5 201.5M1472.5 263.5L1441.5 232.5M1348.5 294.5L1317.5 263.5M790.5 232.5L759.5 263.5L728.5 294.5L697.5 294.5L666.5 263.5L635.5 263.5M1596.5 263.5L1565.5 232.5L1534.5 232.5L1503.5 232.5L1472.5 232.5M1038.5 263.5L1007.5 232.5L976.5 232.5M1937.5 325.5L1906.5 325.5L1875.5 325.5L1844.5 325.5L1813.5 325.5L1782.5 325.5L1751.5 325.5L1720.5 294.5L1689.5 294.5L1658.5 294.5L1627.5 263.5L1596.5 263.5L1565.5 263.5L1534.5 263.5L1503.5 263.5L1472.5 263.5L1441.5 263.5L1410.5 263.5L1379.5 263.5L1348.5 294.5L1317.5 294.5L1286.5 294.5L1255.5 294.5L1224.5 263.5L1193.5 263.5L1162.5 263.5L1131.5 263.5L1100.5 263.5L1069.5 263.5L1038.5 263.5L1007.5 263.5L976.5 263.5L945.5 263.5L914.5 263.5L883.5 263.5L852.5 232.5L821.5 232.5L790.5 232.5L759.5 232.5" stroke="url(#SvgjsLinearGradient2325)" stroke-width="5.17"></path>
            <path d="M751.75 232.5 a7.75 7.75 0 1 0 15.5 0 a7.75 7.75 0 1 0 -15.5 0zM1278.75 232.5 a7.75 7.75 0 1 0 15.5 0 a7.75 7.75 0 1 0 -15.5 0zM813.75 201.5 a7.75 7.75 0 1 0 15.5 0 a7.75 7.75 0 1 0 -15.5 0zM1061.75 232.5 a7.75 7.75 0 1 0 15.5 0 a7.75 7.75 0 1 0 -15.5 0zM1123.75 201.5 a7.75 7.75 0 1 0 15.5 0 a7.75 7.75 0 1 0 -15.5 0zM1433.75 232.5 a7.75 7.75 0 1 0 15.5 0 a7.75 7.75 0 1 0 -15.5 0zM1309.75 263.5 a7.75 7.75 0 1 0 15.5 0 a7.75 7.75 0 1 0 -15.5 0zM627.75 263.5 a7.75 7.75 0 1 0 15.5 0 a7.75 7.75 0 1 0 -15.5 0zM1464.75 232.5 a7.75 7.75 0 1 0 15.5 0 a7.75 7.75 0 1 0 -15.5 0zM968.75 232.5 a7.75 7.75 0 1 0 15.5 0 a7.75 7.75 0 1 0 -15.5 0z" fill="url(#SvgjsLinearGradient2325)"></path>
            <path d="M1689.5 821.5L1658.5 852.5L1627.5 883.5L1596.5 883.5M1751.5 821.5L1720.5 852.5M1782.5 821.5L1751.5 852.5L1720.5 883.5L1689.5 914.5M1937.5 759.5L1906.5 759.5L1875.5 790.5L1844.5 790.5L1813.5 790.5L1782.5 821.5L1751.5 821.5L1720.5 821.5L1689.5 821.5L1658.5 821.5L1627.5 852.5" stroke="url(#SvgjsLinearGradient2325)" stroke-width="5.17"></path>
            <path d="M1619.75 852.5 a7.75 7.75 0 1 0 15.5 0 a7.75 7.75 0 1 0 -15.5 0zM1588.75 883.5 a7.75 7.75 0 1 0 15.5 0 a7.75 7.75 0 1 0 -15.5 0zM1712.75 852.5 a7.75 7.75 0 1 0 15.5 0 a7.75 7.75 0 1 0 -15.5 0zM1681.75 914.5 a7.75 7.75 0 1 0 15.5 0 a7.75 7.75 0 1 0 -15.5 0z" fill="url(#SvgjsLinearGradient2325)"></path>
            <path d="M1689.5 263.5L1658.5 232.5L1627.5 201.5L1596.5 170.5L1565.5 139.5L1534.5 108.5L1503.5 108.5L1472.5 108.5L1441.5 108.5L1410.5 108.5L1379.5 108.5L1348.5 108.5L1317.5 108.5L1286.5 108.5L1255.5 108.5L1224.5 108.5L1193.5 108.5L1162.5 77.5M914.5 139.5L883.5 170.5L852.5 170.5M666.5 170.5L635.5 201.5L604.5 201.5M883.5 139.5L852.5 108.5L821.5 108.5L790.5 108.5L759.5 108.5L728.5 108.5L697.5 108.5M821.5 139.5L790.5 170.5M1813.5 294.5L1782.5 263.5L1751.5 263.5L1720.5 232.5M1224.5 170.5L1193.5 201.5L1162.5 201.5M1007.5 139.5L976.5 170.5L945.5 170.5L914.5 170.5L883.5 201.5L852.5 201.5M1906.5 294.5L1875.5 263.5L1844.5 263.5L1813.5 263.5L1782.5 232.5L1751.5 232.5L1720.5 201.5L1689.5 201.5L1658.5 201.5L1627.5 170.5M1069.5 170.5L1038.5 170.5L1007.5 170.5L976.5 201.5L945.5 201.5L914.5 201.5M1937.5 294.5L1906.5 294.5L1875.5 294.5L1844.5 294.5L1813.5 294.5L1782.5 294.5L1751.5 294.5L1720.5 263.5L1689.5 263.5L1658.5 263.5L1627.5 232.5L1596.5 201.5L1565.5 201.5L1534.5 201.5L1503.5 201.5L1472.5 201.5L1441.5 201.5L1410.5 201.5L1379.5 201.5L1348.5 201.5L1317.5 170.5L1286.5 170.5L1255.5 170.5L1224.5 170.5L1193.5 170.5L1162.5 170.5L1131.5 170.5L1100.5 170.5L1069.5 170.5L1038.5 139.5L1007.5 139.5L976.5 139.5L945.5 139.5L914.5 139.5L883.5 139.5L852.5 139.5L821.5 139.5L790.5 139.5L759.5 139.5L728.5 170.5L697.5 170.5L666.5 170.5L635.5 170.5" stroke="url(#SvgjsLinearGradient2325)" stroke-width="5.17"></path>
            <path d="M627.75 170.5 a7.75 7.75 0 1 0 15.5 0 a7.75 7.75 0 1 0 -15.5 0zM1154.75 77.5 a7.75 7.75 0 1 0 15.5 0 a7.75 7.75 0 1 0 -15.5 0zM844.75 170.5 a7.75 7.75 0 1 0 15.5 0 a7.75 7.75 0 1 0 -15.5 0zM596.75 201.5 a7.75 7.75 0 1 0 15.5 0 a7.75 7.75 0 1 0 -15.5 0zM689.75 108.5 a7.75 7.75 0 1 0 15.5 0 a7.75 7.75 0 1 0 -15.5 0zM782.75 170.5 a7.75 7.75 0 1 0 15.5 0 a7.75 7.75 0 1 0 -15.5 0zM1712.75 232.5 a7.75 7.75 0 1 0 15.5 0 a7.75 7.75 0 1 0 -15.5 0zM1154.75 201.5 a7.75 7.75 0 1 0 15.5 0 a7.75 7.75 0 1 0 -15.5 0zM844.75 201.5 a7.75 7.75 0 1 0 15.5 0 a7.75 7.75 0 1 0 -15.5 0zM1619.75 170.5 a7.75 7.75 0 1 0 15.5 0 a7.75 7.75 0 1 0 -15.5 0zM906.75 201.5 a7.75 7.75 0 1 0 15.5 0 a7.75 7.75 0 1 0 -15.5 0z" fill="url(#SvgjsLinearGradient2325)"></path>
        </g>
    </g>
    <defs>
        <mask id="SvgjsMask2323">
            <rect width="1920" height="1080" fill="#ffffff"></rect>
        </mask>
        <linearGradient x1="10.94%" y1="-19.44%" x2="89.06%" y2="119.44%" gradientUnits="userSpaceOnUse" id="SvgjsLinearGradient2324">
            <stop stop-color="#0e2a47" offset="0"></stop>
            <stop stop-color="rgba(150, 15, 60, 1)" offset="1"></stop>
        </linearGradient>
        <linearGradient x1="1801.18272" y1="1198.8000000000002" x2="483.61727999999994" y2="-118.8" gradientUnits="userSpaceOnUse" id="SvgjsLinearGradient2325">
            <stop stop-color="#3a7cc3" offset="0"></stop>
            <stop stop-color="rgba(221, 17, 142, 1)" offset="1"></stop>
        </linearGradient>
        <mask id="SvgjsMask2326">
            <rect width="1920" height="1080" fill="white"></rect>
            <path d="M1871.62 542.5 a3.88 3.88 0 1 0 7.76 0 a3.88 3.88 0 1 0 -7.76 0z" fill="black"></path>
            <path d="M1220.62 511.5 a3.88 3.88 0 1 0 7.76 0 a3.88 3.88 0 1 0 -7.76 0zM1561.62 511.5 a3.88 3.88 0 1 0 7.76 0 a3.88 3.88 0 1 0 -7.76 0zM1313.62 480.5 a3.88 3.88 0 1 0 7.76 0 a3.88 3.88 0 1 0 -7.76 0zM1065.62 480.5 a3.88 3.88 0 1 0 7.76 0 a3.88 3.88 0 1 0 -7.76 0zM1716.62 511.5 a3.88 3.88 0 1 0 7.76 0 a3.88 3.88 0 1 0 -7.76 0zM1623.62 511.5 a3.88 3.88 0 1 0 7.76 0 a3.88 3.88 0 1 0 -7.76 0zM1778.62 542.5 a3.88 3.88 0 1 0 7.76 0 a3.88 3.88 0 1 0 -7.76 0z" fill="black"></path>
            <path d="M1034.62 511.5 a3.88 3.88 0 1 0 7.76 0 a3.88 3.88 0 1 0 -7.76 0zM1406.62 573.5 a3.88 3.88 0 1 0 7.76 0 a3.88 3.88 0 1 0 -7.76 0zM1685.62 573.5 a3.88 3.88 0 1 0 7.76 0 a3.88 3.88 0 1 0 -7.76 0zM1220.62 573.5 a3.88 3.88 0 1 0 7.76 0 a3.88 3.88 0 1 0 -7.76 0zM972.62 542.5 a3.88 3.88 0 1 0 7.76 0 a3.88 3.88 0 1 0 -7.76 0zM1065.62 511.5 a3.88 3.88 0 1 0 7.76 0 a3.88 3.88 0 1 0 -7.76 0zM1282.62 604.5 a3.88 3.88 0 1 0 7.76 0 a3.88 3.88 0 1 0 -7.76 0zM1127.62 511.5 a3.88 3.88 0 1 0 7.76 0 a3.88 3.88 0 1 0 -7.76 0z" fill="black"></path>
            <path d="M1003.62 449.5 a3.88 3.88 0 1 0 7.76 0 a3.88 3.88 0 1 0 -7.76 0zM1313.62 418.5 a3.88 3.88 0 1 0 7.76 0 a3.88 3.88 0 1 0 -7.76 0zM1158.62 418.5 a3.88 3.88 0 1 0 7.76 0 a3.88 3.88 0 1 0 -7.76 0zM941.62 480.5 a3.88 3.88 0 1 0 7.76 0 a3.88 3.88 0 1 0 -7.76 0zM1375.62 418.5 a3.88 3.88 0 1 0 7.76 0 a3.88 3.88 0 1 0 -7.76 0zM1065.62 418.5 a3.88 3.88 0 1 0 7.76 0 a3.88 3.88 0 1 0 -7.76 0zM910.62 387.5 a3.88 3.88 0 1 0 7.76 0 a3.88 3.88 0 1 0 -7.76 0z" fill="black"></path>
            <path d="M972.62 666.5 a3.88 3.88 0 1 0 7.76 0 a3.88 3.88 0 1 0 -7.76 0zM1530.62 635.5 a3.88 3.88 0 1 0 7.76 0 a3.88 3.88 0 1 0 -7.76 0zM1034.62 635.5 a3.88 3.88 0 1 0 7.76 0 a3.88 3.88 0 1 0 -7.76 0zM1096.62 635.5 a3.88 3.88 0 1 0 7.76 0 a3.88 3.88 0 1 0 -7.76 0zM1375.62 635.5 a3.88 3.88 0 1 0 7.76 0 a3.88 3.88 0 1 0 -7.76 0zM941.62 635.5 a3.88 3.88 0 1 0 7.76 0 a3.88 3.88 0 1 0 -7.76 0zM1468.62 604.5 a3.88 3.88 0 1 0 7.76 0 a3.88 3.88 0 1 0 -7.76 0zM1406.62 635.5 a3.88 3.88 0 1 0 7.76 0 a3.88 3.88 0 1 0 -7.76 0zM1716.62 604.5 a3.88 3.88 0 1 0 7.76 0 a3.88 3.88 0 1 0 -7.76 0z" fill="black"></path>
            <path d="M1344.62 387.5 a3.88 3.88 0 1 0 7.76 0 a3.88 3.88 0 1 0 -7.76 0zM1499.62 418.5 a3.88 3.88 0 1 0 7.76 0 a3.88 3.88 0 1 0 -7.76 0z" fill="black"></path>
            <path d="M507.62 697.5 a3.88 3.88 0 1 0 7.76 0 a3.88 3.88 0 1 0 -7.76 0zM879.62 728.5 a3.88 3.88 0 1 0 7.76 0 a3.88 3.88 0 1 0 -7.76 0zM569.62 759.5 a3.88 3.88 0 1 0 7.76 0 a3.88 3.88 0 1 0 -7.76 0zM414.62 728.5 a3.88 3.88 0 1 0 7.76 0 a3.88 3.88 0 1 0 -7.76 0zM538.62 666.5 a3.88 3.88 0 1 0 7.76 0 a3.88 3.88 0 1 0 -7.76 0zM848.62 790.5 a3.88 3.88 0 1 0 7.76 0 a3.88 3.88 0 1 0 -7.76 0zM569.62 635.5 a3.88 3.88 0 1 0 7.76 0 a3.88 3.88 0 1 0 -7.76 0zM662.62 666.5 a3.88 3.88 0 1 0 7.76 0 a3.88 3.88 0 1 0 -7.76 0zM1871.62 635.5 a3.88 3.88 0 1 0 7.76 0 a3.88 3.88 0 1 0 -7.76 0zM848.62 666.5 a3.88 3.88 0 1 0 7.76 0 a3.88 3.88 0 1 0 -7.76 0zM414.62 604.5 a3.88 3.88 0 1 0 7.76 0 a3.88 3.88 0 1 0 -7.76 0zM631.62 821.5 a3.88 3.88 0 1 0 7.76 0 a3.88 3.88 0 1 0 -7.76 0z" fill="black"></path>
            <path d="M755.62 294.5 a3.88 3.88 0 1 0 7.76 0 a3.88 3.88 0 1 0 -7.76 0zM1530.62 356.5 a3.88 3.88 0 1 0 7.76 0 a3.88 3.88 0 1 0 -7.76 0zM941.62 356.5 a3.88 3.88 0 1 0 7.76 0 a3.88 3.88 0 1 0 -7.76 0zM1065.62 325.5 a3.88 3.88 0 1 0 7.76 0 a3.88 3.88 0 1 0 -7.76 0zM1251.62 387.5 a3.88 3.88 0 1 0 7.76 0 a3.88 3.88 0 1 0 -7.76 0zM755.62 325.5 a3.88 3.88 0 1 0 7.76 0 a3.88 3.88 0 1 0 -7.76 0zM662.62 356.5 a3.88 3.88 0 1 0 7.76 0 a3.88 3.88 0 1 0 -7.76 0zM1003.62 356.5 a3.88 3.88 0 1 0 7.76 0 a3.88 3.88 0 1 0 -7.76 0zM1189.62 325.5 a3.88 3.88 0 1 0 7.76 0 a3.88 3.88 0 1 0 -7.76 0zM1592.62 356.5 a3.88 3.88 0 1 0 7.76 0 a3.88 3.88 0 1 0 -7.76 0z" fill="black"></path>
            <path d="M1065.62 759.5 a3.88 3.88 0 1 0 7.76 0 a3.88 3.88 0 1 0 -7.76 0zM1034.62 790.5 a3.88 3.88 0 1 0 7.76 0 a3.88 3.88 0 1 0 -7.76 0zM1158.62 790.5 a3.88 3.88 0 1 0 7.76 0 a3.88 3.88 0 1 0 -7.76 0z" fill="black"></path>
            <path d="M817.62 263.5 a3.88 3.88 0 1 0 7.76 0 a3.88 3.88 0 1 0 -7.76 0zM1623.62 356.5 a3.88 3.88 0 1 0 7.76 0 a3.88 3.88 0 1 0 -7.76 0z" fill="black"></path>
            <path d="M1127.62 821.5 a3.88 3.88 0 1 0 7.76 0 a3.88 3.88 0 1 0 -7.76 0zM1189.62 790.5 a3.88 3.88 0 1 0 7.76 0 a3.88 3.88 0 1 0 -7.76 0zM1530.62 790.5 a3.88 3.88 0 1 0 7.76 0 a3.88 3.88 0 1 0 -7.76 0z" fill="black"></path>
            <path d="M1375.62 294.5 a3.88 3.88 0 1 0 7.76 0 a3.88 3.88 0 1 0 -7.76 0z" fill="black"></path>
            <path d="M538.62 914.5 a3.88 3.88 0 1 0 7.76 0 a3.88 3.88 0 1 0 -7.76 0zM1344.62 883.5 a3.88 3.88 0 1 0 7.76 0 a3.88 3.88 0 1 0 -7.76 0zM1127.62 914.5 a3.88 3.88 0 1 0 7.76 0 a3.88 3.88 0 1 0 -7.76 0zM941.62 790.5 a3.88 3.88 0 1 0 7.76 0 a3.88 3.88 0 1 0 -7.76 0zM662.62 914.5 a3.88 3.88 0 1 0 7.76 0 a3.88 3.88 0 1 0 -7.76 0zM1127.62 883.5 a3.88 3.88 0 1 0 7.76 0 a3.88 3.88 0 1 0 -7.76 0zM693.62 852.5 a3.88 3.88 0 1 0 7.76 0 a3.88 3.88 0 1 0 -7.76 0zM972.62 852.5 a3.88 3.88 0 1 0 7.76 0 a3.88 3.88 0 1 0 -7.76 0zM1251.62 852.5 a3.88 3.88 0 1 0 7.76 0 a3.88 3.88 0 1 0 -7.76 0zM1778.62 759.5 a3.88 3.88 0 1 0 7.76 0 a3.88 3.88 0 1 0 -7.76 0zM1623.62 790.5 a3.88 3.88 0 1 0 7.76 0 a3.88 3.88 0 1 0 -7.76 0zM1189.62 883.5 a3.88 3.88 0 1 0 7.76 0 a3.88 3.88 0 1 0 -7.76 0z" fill="black"></path>
            <path d="M755.62 232.5 a3.88 3.88 0 1 0 7.76 0 a3.88 3.88 0 1 0 -7.76 0zM1282.62 232.5 a3.88 3.88 0 1 0 7.76 0 a3.88 3.88 0 1 0 -7.76 0zM817.62 201.5 a3.88 3.88 0 1 0 7.76 0 a3.88 3.88 0 1 0 -7.76 0zM1065.62 232.5 a3.88 3.88 0 1 0 7.76 0 a3.88 3.88 0 1 0 -7.76 0zM1127.62 201.5 a3.88 3.88 0 1 0 7.76 0 a3.88 3.88 0 1 0 -7.76 0zM1437.62 232.5 a3.88 3.88 0 1 0 7.76 0 a3.88 3.88 0 1 0 -7.76 0zM1313.62 263.5 a3.88 3.88 0 1 0 7.76 0 a3.88 3.88 0 1 0 -7.76 0zM631.62 263.5 a3.88 3.88 0 1 0 7.76 0 a3.88 3.88 0 1 0 -7.76 0zM1468.62 232.5 a3.88 3.88 0 1 0 7.76 0 a3.88 3.88 0 1 0 -7.76 0zM972.62 232.5 a3.88 3.88 0 1 0 7.76 0 a3.88 3.88 0 1 0 -7.76 0z" fill="black"></path>
            <path d="M1623.62 852.5 a3.88 3.88 0 1 0 7.76 0 a3.88 3.88 0 1 0 -7.76 0zM1592.62 883.5 a3.88 3.88 0 1 0 7.76 0 a3.88 3.88 0 1 0 -7.76 0zM1716.62 852.5 a3.88 3.88 0 1 0 7.76 0 a3.88 3.88 0 1 0 -7.76 0zM1685.62 914.5 a3.88 3.88 0 1 0 7.76 0 a3.88 3.88 0 1 0 -7.76 0z" fill="black"></path>
            <path d="M631.62 170.5 a3.88 3.88 0 1 0 7.76 0 a3.88 3.88 0 1 0 -7.76 0zM1158.62 77.5 a3.88 3.88 0 1 0 7.76 0 a3.88 3.88 0 1 0 -7.76 0zM848.62 170.5 a3.88 3.88 0 1 0 7.76 0 a3.88 3.88 0 1 0 -7.76 0zM600.62 201.5 a3.88 3.88 0 1 0 7.76 0 a3.88 3.88 0 1 0 -7.76 0zM693.62 108.5 a3.88 3.88 0 1 0 7.76 0 a3.88 3.88 0 1 0 -7.76 0zM786.62 170.5 a3.88 3.88 0 1 0 7.76 0 a3.88 3.88 0 1 0 -7.76 0zM1716.62 232.5 a3.88 3.88 0 1 0 7.76 0 a3.88 3.88 0 1 0 -7.76 0zM1158.62 201.5 a3.88 3.88 0 1 0 7.76 0 a3.88 3.88 0 1 0 -7.76 0zM848.62 201.5 a3.88 3.88 0 1 0 7.76 0 a3.88 3.88 0 1 0 -7.76 0zM1623.62 170.5 a3.88 3.88 0 1 0 7.76 0 a3.88 3.88 0 1 0 -7.76 0zM910.62 201.5 a3.88 3.88 0 1 0 7.76 0 a3.88 3.88 0 1 0 -7.76 0z" fill="black"></path>
        </mask>
    </defs>
</svg>







</svg>

