<svg xmlns="http://www.w3.org/2000/svg" xmlns:xlink="http://www.w3.org/1999/xlink" width="1000px" height="500px" viewBox="0 0 1000 500" zoomAndPan="disable" preserveAspectRatio="none">

    <style type="text/css"><![CDATA[
		line
		{
			stroke: rgba(255,255,255,0.05);
			stroke-width: 1px;
		}
    ]]></style>
<!--
	<line x1="1100" y1="500" x2="-1000" y2="250" />
	<line x1="100" y1="500" x2="-1000" y2="-100" />
	<line x1="1000" y1="500" x2="-1000" y2="-500" />
	<line x1="1000" y1="500" x2="-250" y2="-500" />
	<line x1="1000" y1="500" x2="300" y2="-500" />
	<line x1="1000" y1="500" x2="750" y2="-500" />

	<line x1="1750" y1="0" x2="750" y2="500" />
	<line x1="1500" y1="0" x2="500" y2="500" />
	<line x1="1150" y1="0" x2="150" y2="500" />
	<line x1="700" y1="0" x2="-300" y2="500" />
	<line x1="150" y1="0" x2="-850" y2="500" />

-->
<!--
<svg xmlns='http://www.w3.org/2000/svg' width='100%' height='100%' viewBox='0 0 1600 800'><rect fill='#5B0000' width='1600' height='800'/><g fill-opacity='1'><polygon  fill='#52020d' points='1600 160 0 460 0 350 1600 50'/><polygon  fill='#48041b' points='1600 260 0 560 0 450 1600 150'/><polygon  fill='#3f0528' points='1600 360 0 660 0 550 1600 250'/><polygon  fill='#350736' points='1600 460 0 760 0 650 1600 350'/><polygon  fill='#2C0943' points='1600 800 0 800 0 750 1600 450'/></g></svg>
-->


<svg xmlns="http://www.w3.org/2000/svg" version="1.1" xmlns:xlink="http://www.w3.org/1999/xlink" xmlns:svgjs="http://svgjs.com/svgjs" width="1440" height="740" preserveAspectRatio="none" viewBox="0 0 1440 740">
    <g mask="url(&quot;#SvgjsMask1024&quot;)" fill="none">
        <rect width="1440" height="1000" x="0" y="0" fill="url(#SvgjsLinearGradient1025)"></rect>
        <path d="M12 740L752 0L828.5 0L88.5 740z" fill="url(#SvgjsLinearGradient1026)"></path>
        <path d="M481.20000000000005 740L1221.2 0L1467.2 0L727.2 740z" fill="url(#SvgjsLinearGradient1026)"></path>
        <path d="M1361 740L621 0L384 0L1124 740z" fill="url(#SvgjsLinearGradient1027)"></path>
        <path d="M913.8 740L173.79999999999995 0L-363.20000000000005 0L376.79999999999995 740z" fill="url(#SvgjsLinearGradient1027)"></path>
        <path d="M844.1104811319942 740L1440 144.11048113199422L1440 740z" fill="url(#SvgjsLinearGradient1026)"></path>
        <path d="M0 740L595.8895188680058 740L 0 144.11048113199422z" fill="url(#SvgjsLinearGradient1027)"></path>
    </g>
    <defs>
        <mask id="SvgjsMask1024">
            <rect width="1440" height="740" fill="#ffffff"></rect>
        </mask>
        <linearGradient x1="87.85%" y1="123.65%" x2="12.15%" y2="-23.65%" gradientUnits="userSpaceOnUse" id="SvgjsLinearGradient1025">
            <stop stop-color="rgba(156, 69, 115, 1)" offset="0.2"></stop>
            <stop stop-color="rgba(51, 0, 54, 1)" offset="1"></stop>
        </linearGradient>
        <linearGradient x1="0%" y1="100%" x2="100%" y2="0%" id="SvgjsLinearGradient1026">
            <stop stop-color="rgba(15, 70, 185, 0.2)" offset="0"></stop>
            <stop stop-opacity="0" stop-color="rgba(15, 70, 185, 0.2)" offset="0.66"></stop>
        </linearGradient>
        <linearGradient x1="100%" y1="100%" x2="0%" y2="0%" id="SvgjsLinearGradient1027">
            <stop stop-color="rgba(15, 70, 185, 0.2)" offset="0"></stop>
            <stop stop-opacity="0" stop-color="rgba(15, 70, 185, 0.2)" offset="0.66"></stop>
        </linearGradient>
    </defs>
</svg>

</svg>

